<?xml version="1.0" encoding="UTF-8" ?>
<svg version="1.1" width="64" height="64" xmlns="http://www.w3.org/2000/svg" shape-rendering="crispEdges">
<rect x="28" y="31" width="1" height="1" fill="#737373" />
<rect x="29" y="31" width="1" height="1" fill="#737373" />
<rect x="30" y="31" width="1" height="1" fill="#737373" />
<rect x="31" y="31" width="1" height="1" fill="#737373" />
<rect x="32" y="31" width="1" height="1" fill="#737373" />
<rect x="33" y="31" width="1" height="1" fill="#737373" />
<rect x="34" y="31" width="1" height="1" fill="#737373" />
<rect x="35" y="31" width="1" height="1" fill="#737373" />
<rect x="27" y="32" width="1" height="1" fill="#737373" />
<rect x="28" y="32" width="1" height="1" fill="#737373" />
<rect x="29" y="32" width="1" height="1" fill="#737373" />
<rect x="30" y="32" width="1" height="1" fill="#737373" />
<rect x="31" y="32" width="1" height="1" fill="#737373" />
<rect x="32" y="32" width="1" height="1" fill="#737373" />
<rect x="33" y="32" width="1" height="1" fill="#737373" />
<rect x="34" y="32" width="1" height="1" fill="#737373" />
<rect x="35" y="32" width="1" height="1" fill="#737373" />
<rect x="36" y="32" width="1" height="1" fill="#737373" />
<rect x="27" y="33" width="1" height="1" fill="#BBBBBB" />
<rect x="28" y="33" width="1" height="1" fill="#BBBBBB" />
<rect x="29" y="33" width="1" height="1" fill="#BBBBBB" />
<rect x="30" y="33" width="1" height="1" fill="#BBBBBB" />
<rect x="31" y="33" width="1" height="1" fill="#BBBBBB" />
<rect x="32" y="33" width="1" height="1" fill="#BBBBBB" />
<rect x="33" y="33" width="1" height="1" fill="#BBBBBB" />
<rect x="34" y="33" width="1" height="1" fill="#BBBBBB" />
<rect x="35" y="33" width="1" height="1" fill="#BBBBBB" />
<rect x="36" y="33" width="1" height="1" fill="#737373" />
<rect x="27" y="34" width="1" height="1" fill="#BBBBBB" />
<rect x="28" y="34" width="1" height="1" fill="#BBBBBB" />
<rect x="29" y="34" width="1" height="1" fill="#BBBBBB" />
<rect x="30" y="34" width="1" height="1" fill="#BBBBBB" />
<rect x="31" y="34" width="1" height="1" fill="#BBBBBB" />
<rect x="32" y="34" width="1" height="1" fill="#BBBBBB" />
<rect x="33" y="34" width="1" height="1" fill="#BBBBBB" />
<rect x="34" y="34" width="1" height="1" fill="#BBBBBB" />
<rect x="35" y="34" width="1" height="1" fill="#BBBBBB" />
<rect x="36" y="34" width="1" height="1" fill="#BBBBBB" />
<rect x="28" y="35" width="1" height="1" fill="#BBBBBB" />
<rect x="29" y="35" width="1" height="1" fill="#BBBBBB" />
<rect x="30" y="35" width="1" height="1" fill="#BBBBBB" />
<rect x="31" y="35" width="1" height="1" fill="#BBBBBB" />
<rect x="32" y="35" width="1" height="1" fill="#BBBBBB" />
<rect x="33" y="35" width="1" height="1" fill="#BBBBBB" />
<rect x="34" y="35" width="1" height="1" fill="#BBBBBB" />
<rect x="35" y="35" width="1" height="1" fill="#BBBBBB" />
<rect x="29" y="36" width="1" height="1" fill="#BBBBBB" />
<rect x="30" y="36" width="1" height="1" fill="#BBBBBB" />
<rect x="31" y="36" width="1" height="1" fill="#BBBBBB" />
<rect x="32" y="36" width="1" height="1" fill="#BBBBBB" />
<rect x="33" y="36" width="1" height="1" fill="#BBBBBB" />
<rect x="34" y="36" width="1" height="1" fill="#BBBBBB" />
<rect x="29" y="37" width="1" height="1" fill="#737373" />
<rect x="30" y="37" width="1" height="1" fill="#737373" />
<rect x="31" y="37" width="1" height="1" fill="#737373" />
<rect x="32" y="37" width="1" height="1" fill="#737373" />
<rect x="33" y="37" width="1" height="1" fill="#737373" />
<rect x="34" y="37" width="1" height="1" fill="#737373" />
<rect x="29" y="38" width="1" height="1" fill="#737373" />
<rect x="30" y="38" width="1" height="1" fill="#737373" />
<rect x="31" y="38" width="1" height="1" fill="#737373" />
<rect x="32" y="38" width="1" height="1" fill="#737373" />
<rect x="33" y="38" width="1" height="1" fill="#737373" />
<rect x="34" y="38" width="1" height="1" fill="#959595" />
<rect x="29" y="39" width="1" height="1" fill="#959595" />
<rect x="30" y="39" width="1" height="1" fill="#959595" />
<rect x="31" y="39" width="1" height="1" fill="#BBBBBB" />
<rect x="32" y="39" width="1" height="1" fill="#959595" />
<rect x="33" y="39" width="1" height="1" fill="#BBBBBB" />
<rect x="34" y="39" width="1" height="1" fill="#959595" />
<rect x="29" y="40" width="1" height="1" fill="#BBBBBB" />
<rect x="30" y="40" width="1" height="1" fill="#959595" />
<rect x="31" y="40" width="1" height="1" fill="#BBBBBB" />
<rect x="32" y="40" width="1" height="1" fill="#959595" />
<rect x="33" y="40" width="1" height="1" fill="#BBBBBB" />
<rect x="34" y="40" width="1" height="1" fill="#959595" />
<rect x="35" y="40" width="1" height="1" fill="#BBBBBB" />
<rect x="29" y="41" width="1" height="1" fill="#BBBBBB" />
<rect x="30" y="41" width="1" height="1" fill="#959595" />
<rect x="31" y="41" width="1" height="1" fill="#BBBBBB" />
<rect x="32" y="41" width="1" height="1" fill="#959595" />
<rect x="33" y="41" width="1" height="1" fill="#959595" />
<rect x="34" y="41" width="1" height="1" fill="#959595" />
<rect x="35" y="41" width="1" height="1" fill="#BBBBBB" />
<rect x="28" y="42" width="1" height="1" fill="#BBBBBB" />
<rect x="29" y="42" width="1" height="1" fill="#959595" />
<rect x="30" y="42" width="1" height="1" fill="#959595" />
<rect x="31" y="42" width="1" height="1" fill="#959595" />
<rect x="32" y="42" width="1" height="1" fill="#959595" />
<rect x="33" y="42" width="1" height="1" fill="#737373" />
<rect x="34" y="42" width="1" height="1" fill="#959595" />
<rect x="35" y="42" width="1" height="1" fill="#959595" />
<rect x="28" y="43" width="1" height="1" fill="#737373" />
<rect x="29" y="43" width="1" height="1" fill="#959595" />
<rect x="30" y="43" width="1" height="1" fill="#959595" />
<rect x="31" y="43" width="1" height="1" fill="#737373" />
<rect x="32" y="43" width="1" height="1" fill="#959595" />
<rect x="33" y="43" width="1" height="1" fill="#737373" />
<rect x="34" y="43" width="1" height="1" fill="#959595" />
<rect x="35" y="43" width="1" height="1" fill="#737373" />
<rect x="28" y="44" width="1" height="1" fill="#737373" />
<rect x="29" y="44" width="1" height="1" fill="#737373" />
<rect x="30" y="44" width="1" height="1" fill="#959595" />
<rect x="31" y="44" width="1" height="1" fill="#737373" />
<rect x="32" y="44" width="1" height="1" fill="#737373" />
<rect x="33" y="44" width="1" height="1" fill="#737373" />
<rect x="34" y="44" width="1" height="1" fill="#737373" />
<rect x="29" y="45" width="1" height="1" fill="#737373" />
<rect x="30" y="45" width="1" height="1" fill="#737373" />
<rect x="31" y="45" width="1" height="1" fill="#737373" />
<rect x="32" y="45" width="1" height="1" fill="#737373" />
<rect x="33" y="45" width="1" height="1" fill="#737373" />
</svg>