<?xml version="1.0" encoding="UTF-8" ?>
<svg version="1.1" width="64" height="64" xmlns="http://www.w3.org/2000/svg" shape-rendering="crispEdges">
<rect x="32" y="22" width="1" height="1" fill="#6A6A6A" />
<rect x="33" y="22" width="1" height="1" fill="#6A6A6A" />
<rect x="31" y="23" width="1" height="1" fill="#6A6A6A" />
<rect x="32" y="23" width="1" height="1" fill="#6A6A6A" />
<rect x="33" y="23" width="1" height="1" fill="#6A6A6A" />
<rect x="34" y="23" width="1" height="1" fill="#6A6A6A" />
<rect x="35" y="23" width="1" height="1" fill="#6A6A6A" />
<rect x="29" y="24" width="1" height="1" fill="#6A6A6A" />
<rect x="30" y="24" width="1" height="1" fill="#6A6A6A" />
<rect x="31" y="24" width="1" height="1" fill="#6A6A6A" />
<rect x="32" y="24" width="1" height="1" fill="#6A6A6A" />
<rect x="33" y="24" width="1" height="1" fill="#515151" />
<rect x="34" y="24" width="1" height="1" fill="#515151" />
<rect x="35" y="24" width="1" height="1" fill="#6A6A6A" />
<rect x="36" y="24" width="1" height="1" fill="#6A6A6A" />
<rect x="28" y="25" width="1" height="1" fill="#6A6A6A" />
<rect x="29" y="25" width="1" height="1" fill="#6A6A6A" />
<rect x="30" y="25" width="1" height="1" fill="#6A6A6A" />
<rect x="31" y="25" width="1" height="1" fill="#515151" />
<rect x="32" y="25" width="1" height="1" fill="#515151" />
<rect x="33" y="25" width="1" height="1" fill="#515151" />
<rect x="34" y="25" width="1" height="1" fill="#515151" />
<rect x="35" y="25" width="1" height="1" fill="#515151" />
<rect x="36" y="25" width="1" height="1" fill="#6A6A6A" />
<rect x="37" y="25" width="1" height="1" fill="#6A6A6A" />
<rect x="27" y="26" width="1" height="1" fill="#6A6A6A" />
<rect x="28" y="26" width="1" height="1" fill="#6A6A6A" />
<rect x="29" y="26" width="1" height="1" fill="#515151" />
<rect x="30" y="26" width="1" height="1" fill="#515151" />
<rect x="36" y="26" width="1" height="1" fill="#515151" />
<rect x="37" y="26" width="1" height="1" fill="#6A6A6A" />
<rect x="27" y="27" width="1" height="1" fill="#6A6A6A" />
<rect x="28" y="27" width="1" height="1" fill="#515151" />
<rect x="37" y="27" width="1" height="1" fill="#515151" />
<rect x="38" y="27" width="1" height="1" fill="#6A6A6A" />
<rect x="26" y="28" width="1" height="1" fill="#6A6A6A" />
<rect x="38" y="28" width="1" height="1" fill="#515151" />
<rect x="39" y="28" width="1" height="1" fill="#6A6A6A" />
<rect x="24" y="29" width="1" height="1" fill="#6A6A6A" />
<rect x="25" y="29" width="1" height="1" fill="#6A6A6A" />
<rect x="40" y="29" width="1" height="1" fill="#515151" />
<rect x="23" y="30" width="1" height="1" fill="#6A6A6A" />
<rect x="41" y="30" width="1" height="1" fill="#515151" />
<rect x="22" y="31" width="1" height="1" fill="#6A6A6A" />
<rect x="42" y="31" width="1" height="1" fill="#515151" />
</svg>