<?xml version="1.0" encoding="UTF-8" ?>
<svg version="1.1" width="64" height="64" xmlns="http://www.w3.org/2000/svg" shape-rendering="crispEdges">
<rect x="34" y="18" width="1" height="1" fill="#6A6A6A" />
<rect x="32" y="19" width="1" height="1" fill="#6A6A6A" />
<rect x="33" y="19" width="1" height="1" fill="#6A6A6A" />
<rect x="34" y="19" width="1" height="1" fill="#6A6A6A" />
<rect x="35" y="19" width="1" height="1" fill="#6A6A6A" />
<rect x="36" y="19" width="1" height="1" fill="#6A6A6A" />
<rect x="29" y="20" width="1" height="1" fill="#6A6A6A" />
<rect x="30" y="20" width="1" height="1" fill="#6A6A6A" />
<rect x="31" y="20" width="1" height="1" fill="#6A6A6A" />
<rect x="32" y="20" width="1" height="1" fill="#6A6A6A" />
<rect x="33" y="20" width="1" height="1" fill="#6A6A6A" />
<rect x="34" y="20" width="1" height="1" fill="#6A6A6A" />
<rect x="35" y="20" width="1" height="1" fill="#6A6A6A" />
<rect x="36" y="20" width="1" height="1" fill="#6A6A6A" />
<rect x="37" y="20" width="1" height="1" fill="#6A6A6A" />
<rect x="28" y="21" width="1" height="1" fill="#6A6A6A" />
<rect x="29" y="21" width="1" height="1" fill="#6A6A6A" />
<rect x="30" y="21" width="1" height="1" fill="#6A6A6A" />
<rect x="31" y="21" width="1" height="1" fill="#6A6A6A" />
<rect x="32" y="21" width="1" height="1" fill="#515151" />
<rect x="33" y="21" width="1" height="1" fill="#515151" />
<rect x="34" y="21" width="1" height="1" fill="#515151" />
<rect x="35" y="21" width="1" height="1" fill="#515151" />
<rect x="36" y="21" width="1" height="1" fill="#515151" />
<rect x="37" y="21" width="1" height="1" fill="#6A6A6A" />
<rect x="38" y="21" width="1" height="1" fill="#6A6A6A" />
<rect x="27" y="22" width="1" height="1" fill="#6A6A6A" />
<rect x="28" y="22" width="1" height="1" fill="#6A6A6A" />
<rect x="29" y="22" width="1" height="1" fill="#6A6A6A" />
<rect x="30" y="22" width="1" height="1" fill="#515151" />
<rect x="31" y="22" width="1" height="1" fill="#515151" />
<rect x="36" y="22" width="1" height="1" fill="#515151" />
<rect x="37" y="22" width="1" height="1" fill="#515151" />
<rect x="38" y="22" width="1" height="1" fill="#6A6A6A" />
<rect x="27" y="23" width="1" height="1" fill="#6A6A6A" />
<rect x="28" y="23" width="1" height="1" fill="#6A6A6A" />
<rect x="29" y="23" width="1" height="1" fill="#515151" />
<rect x="38" y="23" width="1" height="1" fill="#515151" />
<rect x="39" y="23" width="1" height="1" fill="#6A6A6A" />
<rect x="26" y="24" width="1" height="1" fill="#6A6A6A" />
<rect x="27" y="24" width="1" height="1" fill="#6A6A6A" />
<rect x="28" y="24" width="1" height="1" fill="#515151" />
<rect x="39" y="24" width="1" height="1" fill="#515151" />
<rect x="25" y="25" width="1" height="1" fill="#6A6A6A" />
<rect x="26" y="25" width="1" height="1" fill="#6A6A6A" />
<rect x="27" y="25" width="1" height="1" fill="#515151" />
<rect x="28" y="25" width="1" height="1" fill="#515151" />
<rect x="39" y="25" width="1" height="1" fill="#515151" />
<rect x="40" y="25" width="1" height="1" fill="#515151" />
<rect x="25" y="26" width="1" height="1" fill="#6A6A6A" />
<rect x="26" y="26" width="1" height="1" fill="#6A6A6A" />
<rect x="27" y="26" width="1" height="1" fill="#6A6A6A" />
<rect x="28" y="26" width="1" height="1" fill="#515151" />
<rect x="39" y="26" width="1" height="1" fill="#515151" />
<rect x="40" y="26" width="1" height="1" fill="#515151" />
<rect x="24" y="27" width="1" height="1" fill="#6A6A6A" />
<rect x="25" y="27" width="1" height="1" fill="#6A6A6A" />
<rect x="26" y="27" width="1" height="1" fill="#6A6A6A" />
<rect x="27" y="27" width="1" height="1" fill="#6A6A6A" />
<rect x="28" y="27" width="1" height="1" fill="#6A6A6A" />
<rect x="29" y="27" width="1" height="1" fill="#515151" />
<rect x="40" y="27" width="1" height="1" fill="#515151" />
<rect x="24" y="28" width="1" height="1" fill="#6A6A6A" />
<rect x="25" y="28" width="1" height="1" fill="#6A6A6A" />
<rect x="26" y="28" width="1" height="1" fill="#6A6A6A" />
<rect x="27" y="28" width="1" height="1" fill="#515151" />
<rect x="28" y="28" width="1" height="1" fill="#515151" />
<rect x="29" y="28" width="1" height="1" fill="#515151" />
<rect x="30" y="28" width="1" height="1" fill="#515151" />
<rect x="40" y="28" width="1" height="1" fill="#515151" />
<rect x="23" y="29" width="1" height="1" fill="#6A6A6A" />
<rect x="24" y="29" width="1" height="1" fill="#6A6A6A" />
<rect x="25" y="29" width="1" height="1" fill="#515151" />
<rect x="26" y="29" width="1" height="1" fill="#515151" />
<rect x="23" y="30" width="1" height="1" fill="#6A6A6A" />
<rect x="24" y="30" width="1" height="1" fill="#6A6A6A" />
<rect x="40" y="30" width="1" height="1" fill="#515151" />
<rect x="23" y="31" width="1" height="1" fill="#6A6A6A" />
<rect x="23" y="32" width="1" height="1" fill="#6A6A6A" />
</svg>