<?xml version="1.0" encoding="UTF-8" ?>
<svg version="1.1" width="64" height="64" xmlns="http://www.w3.org/2000/svg" shape-rendering="crispEdges">
<rect x="32" y="23" width="1" height="1" fill="#484848" />
<rect x="33" y="23" width="1" height="1" fill="#484848" />
<rect x="34" y="23" width="1" height="1" fill="#484848" />
<rect x="35" y="23" width="1" height="1" fill="#484848" />
<rect x="30" y="24" width="1" height="1" fill="#484848" />
<rect x="31" y="24" width="1" height="1" fill="#484848" />
<rect x="32" y="24" width="1" height="1" fill="#484848" />
<rect x="33" y="24" width="1" height="1" fill="#484848" />
<rect x="34" y="24" width="1" height="1" fill="#484848" />
<rect x="35" y="24" width="1" height="1" fill="#484848" />
<rect x="36" y="24" width="1" height="1" fill="#484848" />
<rect x="37" y="24" width="1" height="1" fill="#484848" />
<rect x="29" y="25" width="1" height="1" fill="#484848" />
<rect x="30" y="25" width="1" height="1" fill="#484848" />
<rect x="31" y="25" width="1" height="1" fill="#484848" />
<rect x="32" y="25" width="1" height="1" fill="#484848" />
<rect x="33" y="25" width="1" height="1" fill="#484848" />
<rect x="34" y="25" width="1" height="1" fill="#484848" />
<rect x="35" y="25" width="1" height="1" fill="#484848" />
<rect x="36" y="25" width="1" height="1" fill="#484848" />
<rect x="37" y="25" width="1" height="1" fill="#484848" />
<rect x="38" y="25" width="1" height="1" fill="#484848" />
<rect x="29" y="26" width="1" height="1" fill="#484848" />
<rect x="30" y="26" width="1" height="1" fill="#484848" />
<rect x="31" y="26" width="1" height="1" fill="#484848" />
<rect x="32" y="26" width="1" height="1" fill="#484848" />
<rect x="33" y="26" width="1" height="1" fill="#484848" />
<rect x="34" y="26" width="1" height="1" fill="#484848" />
<rect x="35" y="26" width="1" height="1" fill="#484848" />
<rect x="36" y="26" width="1" height="1" fill="#484848" />
<rect x="37" y="26" width="1" height="1" fill="#484848" />
<rect x="38" y="26" width="1" height="1" fill="#484848" />
<rect x="29" y="27" width="1" height="1" fill="#484848" />
<rect x="30" y="27" width="1" height="1" fill="#484848" />
<rect x="31" y="27" width="1" height="1" fill="#484848" />
<rect x="32" y="27" width="1" height="1" fill="#484848" />
<rect x="33" y="27" width="1" height="1" fill="#484848" />
<rect x="34" y="27" width="1" height="1" fill="#484848" />
<rect x="35" y="27" width="1" height="1" fill="#484848" />
<rect x="36" y="27" width="1" height="1" fill="#484848" />
<rect x="37" y="27" width="1" height="1" fill="#484848" />
<rect x="38" y="27" width="1" height="1" fill="#484848" />
<rect x="30" y="28" width="1" height="1" fill="#484848" />
<rect x="31" y="28" width="1" height="1" fill="#484848" />
<rect x="32" y="28" width="1" height="1" fill="#484848" />
<rect x="33" y="28" width="1" height="1" fill="#484848" />
<rect x="34" y="28" width="1" height="1" fill="#484848" />
<rect x="35" y="28" width="1" height="1" fill="#484848" />
<rect x="36" y="28" width="1" height="1" fill="#484848" />
<rect x="37" y="28" width="1" height="1" fill="#484848" />
<rect x="38" y="28" width="1" height="1" fill="#484848" />
<rect x="39" y="28" width="1" height="1" fill="#484848" />
<rect x="31" y="29" width="1" height="1" fill="#484848" />
<rect x="32" y="29" width="1" height="1" fill="#484848" />
<rect x="33" y="29" width="1" height="1" fill="#484848" />
<rect x="34" y="29" width="1" height="1" fill="#484848" />
<rect x="35" y="29" width="1" height="1" fill="#484848" />
<rect x="36" y="29" width="1" height="1" fill="#484848" />
<rect x="37" y="29" width="1" height="1" fill="#484848" />
<rect x="38" y="29" width="1" height="1" fill="#484848" />
<rect x="39" y="29" width="1" height="1" fill="#484848" />
<rect x="27" y="30" width="1" height="1" fill="#2F2F2F" />
<rect x="28" y="30" width="1" height="1" fill="#2F2F2F" />
<rect x="29" y="30" width="1" height="1" fill="#2F2F2F" />
<rect x="30" y="30" width="1" height="1" fill="#2F2F2F" />
<rect x="31" y="30" width="1" height="1" fill="#2F2F2F" />
<rect x="32" y="30" width="1" height="1" fill="#2F2F2F" />
<rect x="33" y="30" width="1" height="1" fill="#2F2F2F" />
<rect x="34" y="30" width="1" height="1" fill="#2F2F2F" />
<rect x="35" y="30" width="1" height="1" fill="#2F2F2F" />
<rect x="36" y="30" width="1" height="1" fill="#484848" />
<rect x="37" y="30" width="1" height="1" fill="#484848" />
<rect x="38" y="30" width="1" height="1" fill="#484848" />
<rect x="39" y="30" width="1" height="1" fill="#484848" />
<rect x="40" y="30" width="1" height="1" fill="#484848" />
<rect x="25" y="31" width="1" height="1" fill="#2F2F2F" />
<rect x="26" y="31" width="1" height="1" fill="#2F2F2F" />
<rect x="27" y="31" width="1" height="1" fill="#2F2F2F" />
<rect x="36" y="31" width="1" height="1" fill="#2F2F2F" />
<rect x="37" y="31" width="1" height="1" fill="#2F2F2F" />
<rect x="38" y="31" width="1" height="1" fill="#2F2F2F" />
<rect x="39" y="31" width="1" height="1" fill="#484848" />
<rect x="24" y="32" width="1" height="1" fill="#2F2F2F" />
<rect x="25" y="32" width="1" height="1" fill="#2F2F2F" />
<rect x="26" y="32" width="1" height="1" fill="#2F2F2F" />
<rect x="37" y="32" width="1" height="1" fill="#2F2F2F" />
<rect x="38" y="32" width="1" height="1" fill="#2F2F2F" />
<rect x="39" y="32" width="1" height="1" fill="#2F2F2F" />
<rect x="40" y="32" width="1" height="1" fill="#484848" />
<rect x="24" y="33" width="1" height="1" fill="#2F2F2F" />
<rect x="39" y="33" width="1" height="1" fill="#2F2F2F" />
<rect x="40" y="33" width="1" height="1" fill="#2F2F2F" />
<rect x="23" y="34" width="1" height="1" fill="#2F2F2F" />
<rect x="40" y="34" width="1" height="1" fill="#2F2F2F" />
<rect x="23" y="35" width="1" height="1" fill="#2F2F2F" />
<rect x="40" y="35" width="1" height="1" fill="#2F2F2F" />
<rect x="24" y="36" width="1" height="1" fill="#2F2F2F" />
<rect x="25" y="36" width="1" height="1" fill="#2F2F2F" />
<rect x="38" y="36" width="1" height="1" fill="#2F2F2F" />
<rect x="39" y="36" width="1" height="1" fill="#2F2F2F" />
<rect x="26" y="37" width="1" height="1" fill="#2F2F2F" />
<rect x="27" y="37" width="1" height="1" fill="#2F2F2F" />
<rect x="28" y="37" width="1" height="1" fill="#2F2F2F" />
<rect x="35" y="37" width="1" height="1" fill="#2F2F2F" />
<rect x="36" y="37" width="1" height="1" fill="#2F2F2F" />
<rect x="37" y="37" width="1" height="1" fill="#2F2F2F" />
</svg>