<?xml version="1.0" encoding="UTF-8" ?>
<svg version="1.1" width="64" height="64" xmlns="http://www.w3.org/2000/svg" shape-rendering="crispEdges">
<rect x="30" y="28" width="1" height="1" fill="#484848" />
<rect x="31" y="28" width="1" height="1" fill="#484848" />
<rect x="32" y="28" width="1" height="1" fill="#484848" />
<rect x="33" y="28" width="1" height="1" fill="#484848" />
<rect x="34" y="28" width="1" height="1" fill="#484848" />
<rect x="35" y="28" width="1" height="1" fill="#484848" />
<rect x="27" y="29" width="1" height="1" fill="#484848" />
<rect x="28" y="29" width="1" height="1" fill="#2F2F2F" />
<rect x="29" y="29" width="1" height="1" fill="#2F2F2F" />
<rect x="30" y="29" width="1" height="1" fill="#2F2F2F" />
<rect x="31" y="29" width="1" height="1" fill="#2F2F2F" />
<rect x="32" y="29" width="1" height="1" fill="#2F2F2F" />
<rect x="33" y="29" width="1" height="1" fill="#2F2F2F" />
<rect x="34" y="29" width="1" height="1" fill="#2F2F2F" />
<rect x="35" y="29" width="1" height="1" fill="#2F2F2F" />
<rect x="36" y="29" width="1" height="1" fill="#484848" />
<rect x="37" y="29" width="1" height="1" fill="#484848" />
<rect x="25" y="30" width="1" height="1" fill="#484848" />
<rect x="26" y="30" width="1" height="1" fill="#484848" />
<rect x="27" y="30" width="1" height="1" fill="#2F2F2F" />
<rect x="36" y="30" width="1" height="1" fill="#2F2F2F" />
<rect x="37" y="30" width="1" height="1" fill="#484848" />
<rect x="38" y="30" width="1" height="1" fill="#484848" />
<rect x="39" y="30" width="1" height="1" fill="#484848" />
<rect x="24" y="31" width="1" height="1" fill="#484848" />
<rect x="25" y="31" width="1" height="1" fill="#2F2F2F" />
<rect x="26" y="31" width="1" height="1" fill="#2F2F2F" />
<rect x="37" y="31" width="1" height="1" fill="#2F2F2F" />
<rect x="38" y="31" width="1" height="1" fill="#2F2F2F" />
<rect x="39" y="31" width="1" height="1" fill="#484848" />
<rect x="24" y="32" width="1" height="1" fill="#2F2F2F" />
<rect x="39" y="32" width="1" height="1" fill="#2F2F2F" />
<rect x="24" y="33" width="1" height="1" fill="#2F2F2F" />
<rect x="39" y="33" width="1" height="1" fill="#2F2F2F" />
<rect x="24" y="34" width="1" height="1" fill="#2F2F2F" />
<rect x="39" y="34" width="1" height="1" fill="#2F2F2F" />
<rect x="25" y="35" width="1" height="1" fill="#2F2F2F" />
<rect x="26" y="35" width="1" height="1" fill="#2F2F2F" />
<rect x="38" y="35" width="1" height="1" fill="#2F2F2F" />
<rect x="27" y="36" width="1" height="1" fill="#2F2F2F" />
<rect x="28" y="36" width="1" height="1" fill="#2F2F2F" />
<rect x="35" y="36" width="1" height="1" fill="#2F2F2F" />
<rect x="36" y="36" width="1" height="1" fill="#2F2F2F" />
<rect x="37" y="36" width="1" height="1" fill="#2F2F2F" />
</svg>