<?xml version="1.0" encoding="UTF-8" ?>
<svg version="1.1" width="64" height="64" xmlns="http://www.w3.org/2000/svg" shape-rendering="crispEdges">
<rect x="28" y="31" width="1" height="1" fill="#737373" />
<rect x="29" y="31" width="1" height="1" fill="#737373" />
<rect x="30" y="31" width="1" height="1" fill="#737373" />
<rect x="31" y="31" width="1" height="1" fill="#737373" />
<rect x="32" y="31" width="1" height="1" fill="#737373" />
<rect x="33" y="31" width="1" height="1" fill="#737373" />
<rect x="34" y="31" width="1" height="1" fill="#737373" />
<rect x="35" y="31" width="1" height="1" fill="#737373" />
<rect x="27" y="32" width="1" height="1" fill="#111111" />
<rect x="28" y="32" width="1" height="1" fill="#BBBBBB" />
<rect x="29" y="32" width="1" height="1" fill="#BBBBBB" />
<rect x="30" y="32" width="1" height="1" fill="#737373" />
<rect x="31" y="32" width="1" height="1" fill="#737373" />
<rect x="32" y="32" width="1" height="1" fill="#737373" />
<rect x="33" y="32" width="1" height="1" fill="#BBBBBB" />
<rect x="34" y="32" width="1" height="1" fill="#BBBBBB" />
<rect x="35" y="32" width="1" height="1" fill="#111111" />
<rect x="36" y="32" width="1" height="1" fill="#737373" />
<rect x="27" y="33" width="1" height="1" fill="#BBBBBB" />
<rect x="28" y="33" width="1" height="1" fill="#111111" />
<rect x="29" y="33" width="1" height="1" fill="#111111" />
<rect x="30" y="33" width="1" height="1" fill="#BBBBBB" />
<rect x="31" y="33" width="1" height="1" fill="#BBBBBB" />
<rect x="32" y="33" width="1" height="1" fill="#BBBBBB" />
<rect x="33" y="33" width="1" height="1" fill="#111111" />
<rect x="34" y="33" width="1" height="1" fill="#111111" />
<rect x="35" y="33" width="1" height="1" fill="#BBBBBB" />
<rect x="36" y="33" width="1" height="1" fill="#737373" />
<rect x="27" y="34" width="1" height="1" fill="#CD6093" />
<rect x="28" y="34" width="1" height="1" fill="#BBBBBB" />
<rect x="29" y="34" width="1" height="1" fill="#BBBBBB" />
<rect x="30" y="34" width="1" height="1" fill="#BBBBBB" />
<rect x="31" y="34" width="1" height="1" fill="#BBBBBB" />
<rect x="32" y="34" width="1" height="1" fill="#BBBBBB" />
<rect x="33" y="34" width="1" height="1" fill="#BBBBBB" />
<rect x="34" y="34" width="1" height="1" fill="#BBBBBB" />
<rect x="35" y="34" width="1" height="1" fill="#CD6093" />
<rect x="36" y="34" width="1" height="1" fill="#BBBBBB" />
<rect x="28" y="35" width="1" height="1" fill="#BBBBBB" />
<rect x="29" y="35" width="1" height="1" fill="#BBBBBB" />
<rect x="30" y="35" width="1" height="1" fill="#BBBBBB" />
<rect x="31" y="35" width="1" height="1" fill="#111111" />
<rect x="32" y="35" width="1" height="1" fill="#111111" />
<rect x="33" y="35" width="1" height="1" fill="#BBBBBB" />
<rect x="34" y="35" width="1" height="1" fill="#BBBBBB" />
<rect x="35" y="35" width="1" height="1" fill="#BBBBBB" />
<rect x="29" y="36" width="1" height="1" fill="#BBBBBB" />
<rect x="30" y="36" width="1" height="1" fill="#BBBBBB" />
<rect x="31" y="36" width="1" height="1" fill="#BBBBBB" />
<rect x="32" y="36" width="1" height="1" fill="#BBBBBB" />
<rect x="33" y="36" width="1" height="1" fill="#BBBBBB" />
<rect x="34" y="36" width="1" height="1" fill="#BBBBBB" />
</svg>