<?xml version="1.0" encoding="UTF-8" ?>
<svg version="1.1" width="64" height="64" xmlns="http://www.w3.org/2000/svg" shape-rendering="crispEdges">
<rect x="27" y="31" width="1" height="1" fill="#515151" />
<rect x="29" y="31" width="1" height="1" fill="#515151" />
<rect x="31" y="31" width="1" height="1" fill="#515151" />
<rect x="33" y="31" width="1" height="1" fill="#515151" />
<rect x="23" y="33" width="1" height="1" fill="#515151" />
<rect x="24" y="33" width="1" height="1" fill="#515151" />
<rect x="25" y="33" width="1" height="1" fill="#515151" />
<rect x="26" y="33" width="1" height="1" fill="#515151" />
<rect x="37" y="33" width="1" height="1" fill="#515151" />
<rect x="38" y="33" width="1" height="1" fill="#515151" />
<rect x="39" y="33" width="1" height="1" fill="#515151" />
<rect x="40" y="33" width="1" height="1" fill="#515151" />
<rect x="22" y="35" width="1" height="1" fill="#515151" />
<rect x="23" y="35" width="1" height="1" fill="#515151" />
<rect x="24" y="35" width="1" height="1" fill="#515151" />
<rect x="25" y="35" width="1" height="1" fill="#515151" />
<rect x="26" y="35" width="1" height="1" fill="#515151" />
<rect x="37" y="35" width="1" height="1" fill="#515151" />
<rect x="38" y="35" width="1" height="1" fill="#515151" />
<rect x="39" y="35" width="1" height="1" fill="#515151" />
<rect x="40" y="35" width="1" height="1" fill="#515151" />
<rect x="41" y="35" width="1" height="1" fill="#515151" />
<rect x="27" y="36" width="1" height="1" fill="#515151" />
<rect x="36" y="36" width="1" height="1" fill="#515151" />
</svg>