<?xml version="1.0" encoding="UTF-8" ?>
<svg version="1.1" width="64" height="64" xmlns="http://www.w3.org/2000/svg" shape-rendering="crispEdges">
<rect x="30" y="29" width="1" height="1" fill="#333333" />
<rect x="28" y="30" width="1" height="1" fill="#333333" />
<rect x="30" y="30" width="1" height="1" fill="#333333" />
<rect x="32" y="30" width="1" height="1" fill="#333333" />
<rect x="34" y="30" width="1" height="1" fill="#333333" />
<rect x="27" y="31" width="1" height="1" fill="#333333" />
<rect x="24" y="33" width="1" height="1" fill="#333333" />
<rect x="25" y="33" width="1" height="1" fill="#333333" />
<rect x="26" y="33" width="1" height="1" fill="#333333" />
<rect x="37" y="33" width="1" height="1" fill="#333333" />
<rect x="38" y="33" width="1" height="1" fill="#333333" />
<rect x="39" y="33" width="1" height="1" fill="#333333" />
<rect x="40" y="33" width="1" height="1" fill="#333333" />
<rect x="41" y="33" width="1" height="1" fill="#333333" />
<rect x="26" y="35" width="1" height="1" fill="#333333" />
<rect x="27" y="35" width="1" height="1" fill="#333333" />
<rect x="37" y="35" width="1" height="1" fill="#333333" />
<rect x="38" y="35" width="1" height="1" fill="#333333" />
</svg>