<?xml version="1.0" encoding="UTF-8" ?>
<svg version="1.1" width="64" height="64" xmlns="http://www.w3.org/2000/svg" shape-rendering="crispEdges">
<rect x="33" y="20" width="1" height="1" fill="#BBBBBB" />
<rect x="29" y="21" width="1" height="1" fill="#BBBBBB" />
<rect x="36" y="21" width="1" height="1" fill="#BBBBBB" />
<rect x="29" y="22" width="1" height="1" fill="#BBBBBB" />
<rect x="31" y="22" width="1" height="1" fill="#BBBBBB" />
<rect x="37" y="22" width="1" height="1" fill="#BBBBBB" />
<rect x="29" y="23" width="1" height="1" fill="#BBBBBB" />
<rect x="31" y="23" width="1" height="1" fill="#BBBBBB" />
<rect x="33" y="23" width="1" height="1" fill="#BBBBBB" />
<rect x="26" y="24" width="1" height="1" fill="#BBBBBB" />
<rect x="28" y="24" width="1" height="1" fill="#BBBBBB" />
<rect x="31" y="24" width="1" height="1" fill="#BBBBBB" />
<rect x="33" y="24" width="1" height="1" fill="#BBBBBB" />
<rect x="38" y="24" width="1" height="1" fill="#BBBBBB" />
<rect x="26" y="25" width="1" height="1" fill="#BBBBBB" />
<rect x="33" y="25" width="1" height="1" fill="#BBBBBB" />
<rect x="35" y="25" width="1" height="1" fill="#BBBBBB" />
<rect x="38" y="25" width="1" height="1" fill="#BBBBBB" />
<rect x="26" y="26" width="1" height="1" fill="#BBBBBB" />
<rect x="33" y="26" width="1" height="1" fill="#BBBBBB" />
<rect x="38" y="26" width="1" height="1" fill="#BBBBBB" />
<rect x="25" y="27" width="1" height="1" fill="#BBBBBB" />
<rect x="25" y="28" width="1" height="1" fill="#BBBBBB" />
<rect x="27" y="28" width="1" height="1" fill="#BBBBBB" />
<rect x="25" y="29" width="1" height="1" fill="#BBBBBB" />
</svg>