<?xml version="1.0" encoding="UTF-8" ?>
<svg version="1.1" width="64" height="64" xmlns="http://www.w3.org/2000/svg" shape-rendering="crispEdges">
<rect x="31" y="22" width="1" height="1" fill="#959595" />
<rect x="32" y="22" width="1" height="1" fill="#959595" />
<rect x="32" y="25" width="1" height="1" fill="#959595" />
<rect x="35" y="25" width="1" height="1" fill="#959595" />
<rect x="28" y="26" width="1" height="1" fill="#959595" />
<rect x="30" y="26" width="1" height="1" fill="#959595" />
<rect x="33" y="26" width="1" height="1" fill="#959595" />
<rect x="35" y="26" width="1" height="1" fill="#959595" />
<rect x="27" y="27" width="1" height="1" fill="#959595" />
<rect x="36" y="27" width="1" height="1" fill="#959595" />
<rect x="38" y="27" width="1" height="1" fill="#959595" />
<rect x="41" y="27" width="1" height="1" fill="#959595" />
<rect x="25" y="28" width="1" height="1" fill="#959595" />
<rect x="39" y="28" width="1" height="1" fill="#959595" />
<rect x="41" y="28" width="1" height="1" fill="#959595" />
<rect x="43" y="28" width="1" height="1" fill="#959595" />
<rect x="23" y="29" width="1" height="1" fill="#959595" />
<rect x="41" y="29" width="1" height="1" fill="#959595" />
<rect x="43" y="29" width="1" height="1" fill="#959595" />
</svg>