<?xml version="1.0" encoding="UTF-8" ?>
<svg version="1.1" width="64" height="64" xmlns="http://www.w3.org/2000/svg" shape-rendering="crispEdges">
<rect x="37" y="21" width="1" height="1" fill="#EAEAEA" />
<rect x="26" y="23" width="1" height="1" fill="#EAEAEA" />
<rect x="28" y="26" width="1" height="1" fill="#EAEAEA" />
<rect x="34" y="26" width="1" height="1" fill="#EAEAEA" />
<rect x="24" y="27" width="1" height="1" fill="#EAEAEA" />
<rect x="30" y="27" width="1" height="1" fill="#EAEAEA" />
<rect x="31" y="27" width="1" height="1" fill="#EAEAEA" />
<rect x="38" y="27" width="1" height="1" fill="#EAEAEA" />
<rect x="27" y="28" width="1" height="1" fill="#EAEAEA" />
<rect x="30" y="28" width="1" height="1" fill="#EAEAEA" />
<rect x="31" y="28" width="1" height="1" fill="#EAEAEA" />
<rect x="32" y="28" width="1" height="1" fill="#EAEAEA" />
<rect x="37" y="28" width="1" height="1" fill="#EAEAEA" />
<rect x="38" y="28" width="1" height="1" fill="#EAEAEA" />
<rect x="26" y="29" width="1" height="1" fill="#EAEAEA" />
<rect x="27" y="29" width="1" height="1" fill="#EAEAEA" />
<rect x="35" y="29" width="1" height="1" fill="#EAEAEA" />
<rect x="40" y="29" width="1" height="1" fill="#EAEAEA" />
<rect x="41" y="29" width="1" height="1" fill="#EAEAEA" />
<rect x="23" y="30" width="1" height="1" fill="#EAEAEA" />
<rect x="40" y="30" width="1" height="1" fill="#EAEAEA" />
<rect x="41" y="30" width="1" height="1" fill="#EAEAEA" />
</svg>