<?xml version="1.0" encoding="UTF-8" ?>
<svg version="1.1" width="64" height="64" xmlns="http://www.w3.org/2000/svg" shape-rendering="crispEdges">
<rect x="29" y="26" width="1" height="1" fill="#EAEAEA" />
<rect x="37" y="26" width="1" height="1" fill="#EAEAEA" />
<rect x="22" y="27" width="1" height="1" fill="#EAEAEA" />
<rect x="36" y="27" width="1" height="1" fill="#EAEAEA" />
<rect x="37" y="27" width="1" height="1" fill="#EAEAEA" />
<rect x="39" y="27" width="1" height="1" fill="#EAEAEA" />
<rect x="23" y="28" width="1" height="1" fill="#EAEAEA" />
<rect x="24" y="28" width="1" height="1" fill="#EAEAEA" />
<rect x="27" y="28" width="1" height="1" fill="#EAEAEA" />
<rect x="20" y="29" width="1" height="1" fill="#EAEAEA" />
<rect x="23" y="29" width="1" height="1" fill="#EAEAEA" />
<rect x="24" y="29" width="1" height="1" fill="#EAEAEA" />
<rect x="34" y="29" width="1" height="1" fill="#EAEAEA" />
<rect x="42" y="29" width="1" height="1" fill="#EAEAEA" />
<rect x="20" y="30" width="1" height="1" fill="#EAEAEA" />
<rect x="21" y="30" width="1" height="1" fill="#EAEAEA" />
<rect x="43" y="31" width="1" height="1" fill="#EAEAEA" />
</svg>