<?xml version="1.0" encoding="UTF-8" ?>
<svg version="1.1" width="64" height="64" xmlns="http://www.w3.org/2000/svg" shape-rendering="crispEdges">
<rect x="28" y="37" width="1" height="1" fill="#BBBBBB" />
<rect x="29" y="37" width="1" height="1" fill="#737373" />
<rect x="30" y="37" width="1" height="1" fill="#737373" />
<rect x="31" y="37" width="1" height="1" fill="#737373" />
<rect x="32" y="37" width="1" height="1" fill="#737373" />
<rect x="33" y="37" width="1" height="1" fill="#737373" />
<rect x="34" y="37" width="1" height="1" fill="#737373" />
<rect x="35" y="37" width="1" height="1" fill="#BBBBBB" />
<rect x="28" y="38" width="1" height="1" fill="#BBBBBB" />
<rect x="29" y="38" width="1" height="1" fill="#BBBBBB" />
<rect x="30" y="38" width="1" height="1" fill="#737373" />
<rect x="31" y="38" width="1" height="1" fill="#737373" />
<rect x="32" y="38" width="1" height="1" fill="#737373" />
<rect x="33" y="38" width="1" height="1" fill="#737373" />
<rect x="34" y="38" width="1" height="1" fill="#737373" />
<rect x="35" y="38" width="1" height="1" fill="#BBBBBB" />
<rect x="30" y="39" width="1" height="1" fill="#BBBBBB" />
<rect x="31" y="39" width="1" height="1" fill="#BBBBBB" />
<rect x="32" y="39" width="1" height="1" fill="#BBBBBB" />
<rect x="33" y="39" width="1" height="1" fill="#BBBBBB" />
<rect x="34" y="39" width="1" height="1" fill="#BBBBBB" />
<rect x="35" y="39" width="1" height="1" fill="#737373" />
<rect x="30" y="40" width="1" height="1" fill="#737373" />
<rect x="31" y="40" width="1" height="1" fill="#737373" />
<rect x="32" y="40" width="1" height="1" fill="#737373" />
<rect x="33" y="40" width="1" height="1" fill="#737373" />
<rect x="34" y="40" width="1" height="1" fill="#737373" />
</svg>